<svg width="20" height="20" viewBox="0 0 20 20" xmlns="http://www.w3.org/2000/svg">
<path d="M7.49749 15.2747C7.20331 15.2734 6.92163 15.1556 6.71423 14.9469L3.65896 11.8916C3.45049 11.6832 3.33337 11.4004 3.33337 11.1056C3.33337 10.8108 3.45049 10.528 3.65896 10.3196C3.86743 10.1111 4.15018 9.99398 4.445 9.99398C4.73982 9.99398 5.02257 10.1111 5.23104 10.3196L7.50305 12.5916L14.769 5.32559C14.9775 5.11712 15.2603 5 15.5551 5C15.8499 5 16.1326 5.11712 16.3411 5.32559C16.5496 5.53406 16.6667 5.8168 16.6667 6.11163C16.6667 6.40645 16.5496 6.68919 16.3411 6.89766L8.28631 14.9525C8.1825 15.0554 8.05938 15.1369 7.92402 15.1922C7.78866 15.2475 7.64371 15.2755 7.49749 15.2747Z" />
</svg>
