<svg width="20" height="20" viewBox="0 0 20 20" xmlns="http://www.w3.org/2000/svg">
<path d="M13.9531 7.0774C14.2379 6.79263 14.2379 6.33093 13.9531 6.04616C13.6684 5.76139 13.2067 5.76139 12.9219 6.04616L10 8.968L7.0782 6.04616C6.79343 5.76139 6.33173 5.76139 6.04696 6.04616C5.76219 6.33093 5.76219 6.79263 6.04696 7.0774L8.9688 9.99924L6.04695 12.9211C5.76218 13.2059 5.76218 13.6676 6.04695 13.9523C6.33172 14.2371 6.79342 14.2371 7.07819 13.9523L10 11.0305L12.9219 13.9523C13.2067 14.2371 13.6684 14.2371 13.9531 13.9523C14.2379 13.6676 14.2379 13.2059 13.9531 12.9211L11.0313 9.99924L13.9531 7.0774Z"/>
</svg>
