<svg width="36" height="36" viewBox="0 0 36 36" xmlns="http://www.w3.org/2000/svg">
<path d="M13.0412 15.3042C12.4326 14.7043 11.5198 14.7043 10.9112 15.3042C10.3027 15.904 10.3027 16.8038 10.9112 17.4037L17.1489 24.0021C17.4532 24.3021 17.9096 24.452 18.2139 24.452C18.6703 24.452 19.1267 24.3021 19.2789 23.8522L34.1885 5.40654C34.6449 4.80668 34.6449 3.75693 33.8842 3.30703C33.4278 2.85714 32.515 2.85714 31.9064 3.60696L28.8636 7.35607C26.1251 4.65671 22.1695 3.0071 18.2139 3.0071C9.84626 3.0071 3 9.75551 3 18.0036C3 26.2516 9.84626 33 18.2139 33C26.5816 33 33.4278 26.2516 33.4278 18.0036C33.4278 16.6539 33.2757 15.3042 32.8193 13.9545C32.515 13.2047 31.7543 12.7548 30.9936 12.9048C30.2329 13.0547 29.7765 13.9545 29.9286 14.7043C30.2329 15.7541 30.385 16.9538 30.385 18.0036C30.385 24.602 24.908 30.0007 18.2139 30.0007C11.5198 30.0007 6.04278 24.602 6.04278 18.0036C6.04278 11.4051 11.5198 6.00639 18.2139 6.00639C21.561 6.00639 24.6038 7.35607 27.038 9.75551L18.2139 20.7029L13.0412 15.3042Z" />
</svg>
