<svg width="36" height="36" viewBox="0 0 36 36" xmlns="http://www.w3.org/2000/svg">
<path d="M18 3C9.75 3 3 9.75 3 18C3 26.25 9.75 33 18 33C26.25 33 33 26.25 33 18C33 9.75 26.25 3 18 3ZM18 30C11.4 30 6 24.6 6 18C6 11.4 11.4 6 18 6C24.6 6 30 11.4 30 18C30 24.6 24.6 30 18 30Z" />
<path d="M23.9998 12C23.3998 11.4 22.4998 11.4 21.8998 12L17.9998 15.9L14.0998 12C13.4998 11.4 12.5998 11.4 11.9998 12C11.3998 12.6 11.3998 13.5 11.9998 14.1L15.8998 18L11.9998 21.9001C11.3998 22.5001 11.3998 23.4001 11.9998 24.0001C12.2998 24.3001 12.7498 24.4501 13.0498 24.4501C13.3498 24.4501 13.7998 24.3001 14.0998 24.0001L17.9998 20.1L21.8998 24.0001C22.1998 24.3001 22.6498 24.4501 22.9498 24.4501C23.2498 24.4501 23.6998 24.3001 23.9998 24.0001C24.5998 23.4001 24.5998 22.5001 23.9998 21.9001L20.0998 18L23.9998 14.1C24.5998 13.5 24.5998 12.6 23.9998 12Z" />
</svg>
