<svg width="104" height="82" viewBox="0 0 104 82" xmlns="http://www.w3.org/2000/svg">
<path d="M52.7313 34.7054C52.6444 34.5944 52.5334 34.5047 52.4067 34.4429C52.28 34.3812 52.141 34.3491 52 34.3491C51.8591 34.3491 51.72 34.3812 51.5933 34.4429C51.4666 34.5047 51.3556 34.5944 51.2688 34.7054L38.2688 51.1527C38.1616 51.2896 38.0951 51.4538 38.0769 51.6267C38.0587 51.7996 38.0894 51.9741 38.1657 52.1303C38.242 52.2865 38.3607 52.418 38.5082 52.51C38.6558 52.6019 38.8262 52.6504 39 52.65C43.7373 52.65 47.5777 56.4904 47.5777 61.2277V80.7858C47.5777 81.2965 47.9956 81.7143 48.5063 81.7143H55.4706C55.9813 81.7143 56.3991 81.2965 56.3991 80.7858V61.2625C56.3991 56.5124 60.2499 52.6617 65 52.6617C65.7777 52.6617 66.2072 51.7679 65.7313 51.1643L52.7313 34.7054Z" />
<path d="M95.7929 28.717C90.8699 24.5418 85.6777 20.1795 81.8256 14.9998C75.0564 5.89757 64.2263 0 52.0232 0C39.8281 0 29.0044 5.88294 22.2343 14.9717C18.3712 20.1579 13.1652 24.5251 8.22869 28.7024C3.19712 32.9602 0 39.3232 0 46.4286C0 59.2545 10.3884 69.6429 23.2027 69.6429H27.8571C28.3679 69.6429 28.7857 69.225 28.7857 68.7143V61.75C28.7857 61.2393 28.3679 60.8214 27.8571 60.8214H23.2027C19.2911 60.8214 15.6116 59.2661 12.8723 56.4455C10.1446 53.6366 8.69375 49.8527 8.82143 45.9295C8.92589 42.8652 9.97054 39.9866 11.8625 37.5607C13.8009 35.0884 16.517 33.2893 19.5348 32.4884C22.2933 31.7678 24.5351 29.7564 25.5473 27.0911C26.5455 24.4446 27.9384 21.9723 29.6911 19.7321C31.4214 17.5118 33.471 15.56 35.7732 13.9402C40.5438 10.5857 46.1616 8.80982 52.0232 8.80982C57.8848 8.80982 63.5027 10.5857 68.2732 13.9402C70.583 15.5652 72.6259 17.5152 74.3554 19.7321C76.108 21.9723 77.5009 24.4562 78.4991 27.0911C79.5043 29.7497 81.7406 31.7615 84.4884 32.4884C90.7795 34.183 95.1786 39.9054 95.1786 46.4286C95.1786 50.2705 93.6813 53.892 90.9652 56.608C89.6332 57.9478 88.0487 59.0101 86.3033 59.7333C84.558 60.4565 82.6865 60.8264 80.7973 60.8214H76.1429C75.6321 60.8214 75.2143 61.2393 75.2143 61.75V68.7143C75.2143 69.225 75.6321 69.6429 76.1429 69.6429H80.7973C93.6116 69.6429 104 59.2545 104 46.4286C104 39.3298 100.812 32.9738 95.7929 28.717Z" />
</svg>
